<svg xmlns="http://www.w3.org/2000/svg" width="46" height="46" viewBox="0 0 46 46">
  <g id="Group_5710" data-name="Group 5710" transform="translate(-62 -1001)">
    <g id="Group_5681" data-name="Group 5681" transform="translate(-10906 -2251)">
      <circle id="Ellipse_1459" data-name="Ellipse 1459" cx="22" cy="22" r="22" transform="translate(10969 3253)" fill="#191919" stroke="#191919" stroke-width="2"/>
      <g id="c3_black" transform="translate(10981.956 3262.16)">
        <path id="b" d="M98.783,22.157c0,.759-.326,1.084-1.084,1.084h-.47a.944.944,0,0,1-1.084-1.084V16.164H93.47v6.172c0,2.278,1.12,3.4,3.4,3.4h1.3c2.277,0,3.434-1.157,3.434-3.434V14.927a2.11,2.11,0,0,0-1.591-2.386c.976-.362,1.518-1.157,1.518-2.748V3.434C101.531,1.157,100.411,0,98.1,0H96.94c-2.277,0-3.434,1.157-3.434,3.434V9.261h2.711V3.578c0-.759.361-1.084,1.048-1.084h.4a.944.944,0,0,1,1.084,1.084v6.795a.958.958,0,0,1-1.084,1.084H95.287v2.53h2.447c.723,0,1.048.326,1.048,1.048Z" transform="translate(-83.603 0)" fill="#fff"/>
        <path id="c" d="M5.5,16.166v6.006c0,.76-.326,1.085-1.049,1.085H3.906c-.723,0-1.049-.326-1.049-1.085V3.581c0-.76.326-1.085,1.049-1.085h.47c.76,0,1.085.326,1.085,1.085V9.255H8.209V3.4C8.21,1.121,7.125,0,4.81,0H3.436C1.157,0,0,1.157,0,3.436V22.317c0,2.279,1.157,3.436,3.436,3.436h1.41c2.315,0,3.436-1.157,3.436-3.436V16.166Z" transform="translate(0 0)" fill="#fff"/>
      </g>
    </g>
  </g>
</svg>
