<svg xmlns="http://www.w3.org/2000/svg" viewBox="0 0 300 300">
  <style>
    .background { fill:#1A2A3C; }
    .foreground { fill:#EEF4F9; }
    @media (prefers-color-scheme: dark) {
      .background { fill:#FFFFFF; }
      .foreground { fill:#163757; }
    }
  </style>
  <path class="background" d="M0 0h300v300H0z"/>
  <path class="foreground" d="M147.5 96.4h11.4v113.2h-29.6v-59.1L95.7 180h-3.4l-33.1-29.5v59.1H29.6V96.4h10.9l53.6 49.1 53.4-49.1zM252.8 169.6c11.2-7.6 16.8-20.3 16.9-33.3 0-19.9-13.3-40.2-40.7-40.2-16.7-.2-39.7 0-55.9 0v113.4h29.6v-35h17l17.1 35h30.6l.8-5-18.7-33.4c2.5-.8 3.3-1.5 3.3-1.5zm-50-49h25.8c8.4 0 12.3 7.4 12.3 14.6 0 7.1-4.1 15.1-12.3 15.1h-25.8v-29.7z"/>
</svg>
